<?xml version="1.0" standalone="no"?>
<!DOCTYPE svg PUBLIC "-//W3C//DTD SVG 20010904//EN"
 "http://www.w3.org/TR/2001/REC-SVG-20010904/DTD/svg10.dtd">
<svg version="1.0" xmlns="http://www.w3.org/2000/svg"
 width="355.000000pt" height="341.000000pt" viewBox="0 0 355.000000 341.000000"
 preserveAspectRatio="xMidYMid meet">

<g transform="translate(0.000000,341.000000) scale(0.100000,-0.100000)"
fill="#000000" stroke="none">
<path fill="#dbe9ee" d="M1573 2946 c-59 -19 -107 -51  -123 -81 -8 -15 -34 -35 -62 -47 -74
-31 -92 -69 -97 -198 -3 -100 -5 -105 -32 -131 -47 -43 -34 -110 35 -187 25
-27 39 -55 45 -88 13 -65 19 -81 53 -131 15 -23 28 -44 28 -46 0 -2 -23 -7
-51 -10 -60 -7 -114 -38 -134 -77 -8 -16 -15 -55 -15 -87 l0 -58 -63 -30 c-39
-19 -86 -54 -127 -95 -107 -107 -160 -239 -160 -396 l0 -83 623 0 c342 -1 627
-1 634 -1 6 0 21 -20 33 -45 30 -62 104 -133 170 -164 47 -22 69 -26 150 -26
76 0 104 5 143 22 70 33 149 113 183 186 26 55 29 73 29 157 0 84 -3 102 -28
152 -36 74 -107 144 -177 177 -44 20 -73 26 -143 28 -82 2 -90 4 -132 36 -24
19 -69 45 -99 58 l-54 24 1 56 c2 96 -52 154 -153 166 -27 3 -50 8 -50 10 0 2
13 23 29 46 29 43 45 85 55 148 4 24 20 48 48 74 44 43 68 88 68 132 0 33 -25
73 -45 73 -11 0 -13 21 -12 103 2 110 -4 129 -55 183 -25 27 -28 35 -19 53 12
22 18 87 9 97 -3 3 -21 -4 -39 -15 -42 -26 -57 -26 -154 -1 -104 27 -256 35
-312 16z m177 -36 c47 -6 110 -18 140 -27 30 -8 72 -15 93 -14 33 1 37 -1 28
-17 -6 -10 -17 -24 -25 -32 -24 -19 -19 -30 12 -30 66 0 104 -60 101 -158 -5
-126 -18 -143 -92 -118 -74 25 -247 5 -261 -29 -7 -20 -52 -19 -60 0 -3 8 -17
20 -32 25 -38 15 -205 16 -231 2 -30 -17 -50 -15 -71 6 -17 17 -21 62 -14 174
3 41 46 85 90 93 30 5 40 12 49 34 15 40 74 81 130 91 26 4 50 8 53 9 3 0 44
-4 90 -9z m-124 -435 c33 -7 36 -32 9 -84 -28 -56 -37 -61 -115 -61 -67 0 -79
10 -90 73 -9 49 1 74 32 79 27 5 134 0 164 -7z m358 -5 c27 -10 28 -13 21 -56
-12 -81 -19 -86 -105 -86 -65 1 -85 13 -105 67 -28 72 -20 78 101 83 33 2 73
-2 88 -8z m-622 -12 c9 -7 18 -34 21 -59 13 -100 42 -124 148 -122 86 1 111
16 146 88 15 30 33 57 40 59 13 6 77 -107 67 -117 -14 -14 48 -30 112 -29 115
2 164 44 164 144 0 31 27 50 62 44 13 -3 26 -5 31 -5 11 -1 8 -49 -4 -74 -16
-32 -61 -77 -75 -77 -19 0 -44 -41 -44 -70 0 -86 -66 -180 -163 -234 -58 -32
-68 -34 -157 -34 -89 0 -99 2 -157 34 -34 19 -77 52 -96 74 -33 39 -67 121
-67 163 0 25 -40 87 -57 87 -18 0 -53 64 -53 98 0 24 5 32 23 35 39 8 43 7 59
-5z m92 -539 c8 -85 40 -152 96 -202 l48 -43 -29 -32 c-16 -18 -37 -32 -46
-32 -57 0 -206 107 -238 170 -34 69 -22 155 25 180 25 13 109 28 126 23 6 -2
14 -31 18 -64z m662 36 c28 -18 48 -86 39 -131 -12 -68 -109 -165 -200 -199
l-45 -18 -34 39 -33 38 33 32 c45 42 81 123 89 200 5 47 11 64 24 66 26 6 102
-11 127 -27z m-601 -5 c4 -6 30 -23 58 -38 45 -23 64 -27 137 -27 80 0 89 2
153 37 64 36 67 37 63 15 -2 -12 -7 -40 -11 -62 -15 -83 -68 -143 -146 -165
-134 -39 -249 49 -273 208 -6 39 4 56 19 32z m-130 -336 c24 -13 67 -33 97
-44 l53 -18 0 -46 c0 -36 -4 -47 -21 -57 -23 -12 -41 -45 -38 -66 1 -7 2 -20
3 -28 2 -29 40 -55 78 -55 81 0 115 92 52 144 -30 26 -31 29 -27 93 4 57 8 69
32 89 24 21 37 24 117 24 82 0 92 -2 114 -25 37 -36 34 -94 -5 -133 -39 -40
-39 -75 0 -114 26 -25 36 -29 63 -24 68 13 91 93 40 144 -42 42 -40 58 14 76
85 29 165 91 213 165 l16 24 49 -22 c27 -12 64 -33 83 -48 l34 -26 -31 -13
c-50 -21 -135 -109 -166 -171 -26 -50 -29 -69 -30 -145 l0 -88 -606 0 -606 0
4 43 c11 124 17 151 49 217 42 88 134 183 214 222 l55 26 53 -59 c30 -33 73
-71 97 -85z m1188 16 c83 -26 155 -88 194 -168 37 -75 40 -192 6 -264 -93
-203 -345 -258 -503 -109 -115 109 -137 278 -51 412 45 72 125 124 210 139 70
12 74 11 144 -10z m-654 -179 c13 -24 -8 -55 -34 -50 -28 6 -42 34 -26 53 18
22 48 20 60 -3z m-335 -50 c29 -32 -5 -72 -45 -51 -24 13 -25 46 -1 59 23 14
27 14 46 -8z"/>
<path fill="#dbe9ee" d="M1594 2196 c-73 -31 -86 -43 -73 -68 9 -17 13 -18 27 -5 26 22 111
47 161 47 55 0 138 -24 162 -46 16 -14 18 -14 28 4 13 25 0 37 -77 69 -73 30
-157 29 -228 -1z"/>
<path fill="#dbe9ee" d="M1650 2048 c0 -16 34 -38 60 -38 26 0 60 22 60 38 0 4 -27 7 -60 7
-33 0 -60 -3 -60 -7z"/>
<path fill="#dbe9ee" d="M2460 1333 c-68 -142 -81 -176 -69 -184 8 -5 16 -9 19 -9 3 0 44 78
92 174 86 171 86 174 64 184 -21 9 -26 2 -106 -165z"/>
<path fill="#dbe9ee" d="M2282 1377 l-52 -53 53 -52 c48 -47 55 -51 67 -37 12 14 9 21 -22 52
l-35 35 39 37 c38 35 39 37 21 53 -18 17 -21 15 -71 -35z"/>
<path fill="#dbe9ee" d="M2602 1408 c-9 -9 -4 -20 25 -50 l37 -38 -34 -35 c-28 -29 -31 -36
-20 -50 12 -14 19 -10 67 37 l53 52 -47 48 c-50 50 -61 56 -81 36z"/>
<path fill="#dbe9ee" d="M1255 893 c-11 -3 -24 -9 -29 -13 -5 -5 -46 -96 -93 -202 -46 -106
-86 -198 -89 -205 -7 -14 75 -39 86 -26 4 4 27 52 50 106 24 54 47 100 52 103
4 3 8 -22 8 -54 0 -76 10 -124 24 -119 6 2 46 49 90 106 43 56 80 101 81 99 2
-2 -1 -56 -7 -121 -6 -64 -9 -120 -6 -123 3 -3 27 0 53 7 32 8 49 18 54 33 9
22 31 298 31 374 0 47 -6 50 -73 31 -32 -9 -46 -23 -95 -96 l-57 -86 -7 49
c-4 27 -10 70 -13 97 -6 49 -11 52 -60 40z"/>
<path fill="#dbe9ee" d="M1744 888 l-41 -10 -61 -216 c-34 -119 -59 -218 -57 -220 5 -5 114
24 122 32 6 5 108 347 118 394 6 29 4 32 -17 31 -13 -1 -41 -6 -64 -11z"/>
<path fill="#dbe9ee" d="M1945 888 l-40 -10 -61 -216 c-37 -134 -57 -218 -50 -220 6 -1 34 6
61 17 49 18 50 19 73 90 13 39 27 71 31 71 4 0 29 -38 55 -85 35 -61 53 -85
67 -85 20 0 99 36 99 45 0 8 -70 114 -104 158 l-29 38 23 16 c31 22 200 174
200 181 0 2 -32 2 -70 0 -70 -5 -71 -6 -131 -63 -33 -31 -62 -55 -65 -53 -2 3
3 27 11 54 8 27 15 55 15 62 0 14 -27 14 -85 0z"/>
<path fill="#dbe9ee" d="M2374 888 l-41 -10 -62 -215 c-34 -119 -59 -218 -57 -221 5 -5 114
23 122 31 5 5 109 352 118 395 7 29 5 32 -16 31 -13 -1 -41 -6 -64 -11z"/>
</g>
</svg>
